<mxfile host="app.diagrams.net" modified="2023-11-13T15:30:49.341Z" agent="Mozilla/5.0 (Windows NT 10.0; Win64; x64; rv:109.0) Gecko/20100101 Firefox/116.0" etag="U8ROlJRa13YU5QBLHLCF" version="22.1.0" type="github">
  <diagram id="C5RBs43oDa-KdzZeNtuy" name="Page-1">
    <mxGraphModel dx="1257" dy="726" grid="1" gridSize="10" guides="1" tooltips="1" connect="1" arrows="1" fold="1" page="1" pageScale="1" pageWidth="827" pageHeight="1169" math="0" shadow="0">
      <root>
        <mxCell id="WIyWlLk6GJQsqaUBKTNV-0" />
        <mxCell id="WIyWlLk6GJQsqaUBKTNV-1" parent="WIyWlLk6GJQsqaUBKTNV-0" />
        <mxCell id="dHVZZs5qEAoQHsj6ltKS-1" value="" style="edgeStyle=orthogonalEdgeStyle;rounded=0;orthogonalLoop=1;jettySize=auto;html=1;" parent="WIyWlLk6GJQsqaUBKTNV-1" source="NwByxTrdvsMd5VJhw4ta-0" target="dHVZZs5qEAoQHsj6ltKS-0" edge="1">
          <mxGeometry relative="1" as="geometry" />
        </mxCell>
        <mxCell id="NwByxTrdvsMd5VJhw4ta-0" value="start" style="ellipse;whiteSpace=wrap;html=1;" parent="WIyWlLk6GJQsqaUBKTNV-1" vertex="1">
          <mxGeometry x="340" width="120" height="80" as="geometry" />
        </mxCell>
        <mxCell id="dHVZZs5qEAoQHsj6ltKS-3" style="edgeStyle=orthogonalEdgeStyle;rounded=0;orthogonalLoop=1;jettySize=auto;html=1;entryX=0.5;entryY=0;entryDx=0;entryDy=0;" parent="WIyWlLk6GJQsqaUBKTNV-1" source="dHVZZs5qEAoQHsj6ltKS-0" target="dHVZZs5qEAoQHsj6ltKS-2" edge="1">
          <mxGeometry relative="1" as="geometry" />
        </mxCell>
        <mxCell id="dHVZZs5qEAoQHsj6ltKS-0" value="choice" style="shape=parallelogram;perimeter=parallelogramPerimeter;whiteSpace=wrap;html=1;fixedSize=1;" parent="WIyWlLk6GJQsqaUBKTNV-1" vertex="1">
          <mxGeometry x="340" y="170" width="120" height="60" as="geometry" />
        </mxCell>
        <mxCell id="dHVZZs5qEAoQHsj6ltKS-5" value="" style="edgeStyle=orthogonalEdgeStyle;rounded=0;orthogonalLoop=1;jettySize=auto;html=1;" parent="WIyWlLk6GJQsqaUBKTNV-1" source="dHVZZs5qEAoQHsj6ltKS-2" target="dHVZZs5qEAoQHsj6ltKS-4" edge="1">
          <mxGeometry relative="1" as="geometry" />
        </mxCell>
        <mxCell id="dHVZZs5qEAoQHsj6ltKS-21" value="false" style="edgeLabel;html=1;align=center;verticalAlign=middle;resizable=0;points=[];" parent="dHVZZs5qEAoQHsj6ltKS-5" vertex="1" connectable="0">
          <mxGeometry x="0.0643" y="4" relative="1" as="geometry">
            <mxPoint as="offset" />
          </mxGeometry>
        </mxCell>
        <mxCell id="dHVZZs5qEAoQHsj6ltKS-29" value="" style="edgeStyle=orthogonalEdgeStyle;rounded=0;orthogonalLoop=1;jettySize=auto;html=1;" parent="WIyWlLk6GJQsqaUBKTNV-1" source="dHVZZs5qEAoQHsj6ltKS-2" target="dHVZZs5qEAoQHsj6ltKS-28" edge="1">
          <mxGeometry relative="1" as="geometry" />
        </mxCell>
        <mxCell id="dHVZZs5qEAoQHsj6ltKS-2" value="choice=1" style="rhombus;whiteSpace=wrap;html=1;" parent="WIyWlLk6GJQsqaUBKTNV-1" vertex="1">
          <mxGeometry x="350" y="310" width="80" height="80" as="geometry" />
        </mxCell>
        <mxCell id="dHVZZs5qEAoQHsj6ltKS-7" value="" style="edgeStyle=orthogonalEdgeStyle;rounded=0;orthogonalLoop=1;jettySize=auto;html=1;" parent="WIyWlLk6GJQsqaUBKTNV-1" source="dHVZZs5qEAoQHsj6ltKS-4" target="dHVZZs5qEAoQHsj6ltKS-6" edge="1">
          <mxGeometry relative="1" as="geometry" />
        </mxCell>
        <mxCell id="dHVZZs5qEAoQHsj6ltKS-22" value="fasle" style="edgeLabel;html=1;align=center;verticalAlign=middle;resizable=0;points=[];" parent="dHVZZs5qEAoQHsj6ltKS-7" vertex="1" connectable="0">
          <mxGeometry x="-0.1857" y="-1" relative="1" as="geometry">
            <mxPoint as="offset" />
          </mxGeometry>
        </mxCell>
        <mxCell id="dHVZZs5qEAoQHsj6ltKS-31" value="" style="edgeStyle=orthogonalEdgeStyle;rounded=0;orthogonalLoop=1;jettySize=auto;html=1;" parent="WIyWlLk6GJQsqaUBKTNV-1" source="dHVZZs5qEAoQHsj6ltKS-4" target="dHVZZs5qEAoQHsj6ltKS-30" edge="1">
          <mxGeometry relative="1" as="geometry" />
        </mxCell>
        <mxCell id="dHVZZs5qEAoQHsj6ltKS-4" value="choice=2" style="rhombus;whiteSpace=wrap;html=1;" parent="WIyWlLk6GJQsqaUBKTNV-1" vertex="1">
          <mxGeometry x="350" y="470" width="80" height="80" as="geometry" />
        </mxCell>
        <mxCell id="dHVZZs5qEAoQHsj6ltKS-9" value="" style="edgeStyle=orthogonalEdgeStyle;rounded=0;orthogonalLoop=1;jettySize=auto;html=1;" parent="WIyWlLk6GJQsqaUBKTNV-1" source="dHVZZs5qEAoQHsj6ltKS-6" target="dHVZZs5qEAoQHsj6ltKS-8" edge="1">
          <mxGeometry relative="1" as="geometry" />
        </mxCell>
        <mxCell id="dHVZZs5qEAoQHsj6ltKS-23" value="false" style="edgeLabel;html=1;align=center;verticalAlign=middle;resizable=0;points=[];" parent="dHVZZs5qEAoQHsj6ltKS-9" vertex="1" connectable="0">
          <mxGeometry x="-0.1857" y="-3" relative="1" as="geometry">
            <mxPoint as="offset" />
          </mxGeometry>
        </mxCell>
        <mxCell id="dHVZZs5qEAoQHsj6ltKS-33" value="" style="edgeStyle=orthogonalEdgeStyle;rounded=0;orthogonalLoop=1;jettySize=auto;html=1;" parent="WIyWlLk6GJQsqaUBKTNV-1" source="dHVZZs5qEAoQHsj6ltKS-6" target="dHVZZs5qEAoQHsj6ltKS-32" edge="1">
          <mxGeometry relative="1" as="geometry" />
        </mxCell>
        <mxCell id="dHVZZs5qEAoQHsj6ltKS-6" value="choice=3" style="rhombus;whiteSpace=wrap;html=1;" parent="WIyWlLk6GJQsqaUBKTNV-1" vertex="1">
          <mxGeometry x="350" y="630" width="80" height="80" as="geometry" />
        </mxCell>
        <mxCell id="dHVZZs5qEAoQHsj6ltKS-11" value="" style="edgeStyle=orthogonalEdgeStyle;rounded=0;orthogonalLoop=1;jettySize=auto;html=1;" parent="WIyWlLk6GJQsqaUBKTNV-1" source="dHVZZs5qEAoQHsj6ltKS-8" target="dHVZZs5qEAoQHsj6ltKS-10" edge="1">
          <mxGeometry relative="1" as="geometry" />
        </mxCell>
        <mxCell id="dHVZZs5qEAoQHsj6ltKS-24" value="false" style="edgeLabel;html=1;align=center;verticalAlign=middle;resizable=0;points=[];" parent="dHVZZs5qEAoQHsj6ltKS-11" vertex="1" connectable="0">
          <mxGeometry x="-0.1143" y="-3" relative="1" as="geometry">
            <mxPoint as="offset" />
          </mxGeometry>
        </mxCell>
        <mxCell id="dHVZZs5qEAoQHsj6ltKS-35" value="" style="edgeStyle=orthogonalEdgeStyle;rounded=0;orthogonalLoop=1;jettySize=auto;html=1;" parent="WIyWlLk6GJQsqaUBKTNV-1" source="dHVZZs5qEAoQHsj6ltKS-8" target="dHVZZs5qEAoQHsj6ltKS-34" edge="1">
          <mxGeometry relative="1" as="geometry" />
        </mxCell>
        <mxCell id="dHVZZs5qEAoQHsj6ltKS-8" value="choice=4" style="rhombus;whiteSpace=wrap;html=1;" parent="WIyWlLk6GJQsqaUBKTNV-1" vertex="1">
          <mxGeometry x="350" y="790" width="80" height="80" as="geometry" />
        </mxCell>
        <mxCell id="dHVZZs5qEAoQHsj6ltKS-13" value="" style="edgeStyle=orthogonalEdgeStyle;rounded=0;orthogonalLoop=1;jettySize=auto;html=1;" parent="WIyWlLk6GJQsqaUBKTNV-1" source="dHVZZs5qEAoQHsj6ltKS-10" target="dHVZZs5qEAoQHsj6ltKS-12" edge="1">
          <mxGeometry relative="1" as="geometry" />
        </mxCell>
        <mxCell id="dHVZZs5qEAoQHsj6ltKS-25" value="false" style="edgeLabel;html=1;align=center;verticalAlign=middle;resizable=0;points=[];" parent="dHVZZs5qEAoQHsj6ltKS-13" vertex="1" connectable="0">
          <mxGeometry x="0.1" y="3" relative="1" as="geometry">
            <mxPoint as="offset" />
          </mxGeometry>
        </mxCell>
        <mxCell id="dHVZZs5qEAoQHsj6ltKS-37" value="" style="edgeStyle=orthogonalEdgeStyle;rounded=0;orthogonalLoop=1;jettySize=auto;html=1;" parent="WIyWlLk6GJQsqaUBKTNV-1" source="dHVZZs5qEAoQHsj6ltKS-10" target="dHVZZs5qEAoQHsj6ltKS-36" edge="1">
          <mxGeometry relative="1" as="geometry" />
        </mxCell>
        <mxCell id="dHVZZs5qEAoQHsj6ltKS-10" value="choice=5" style="rhombus;whiteSpace=wrap;html=1;" parent="WIyWlLk6GJQsqaUBKTNV-1" vertex="1">
          <mxGeometry x="350" y="950" width="80" height="80" as="geometry" />
        </mxCell>
        <mxCell id="dHVZZs5qEAoQHsj6ltKS-15" style="edgeStyle=orthogonalEdgeStyle;rounded=0;orthogonalLoop=1;jettySize=auto;html=1;entryX=0.5;entryY=0;entryDx=0;entryDy=0;" parent="WIyWlLk6GJQsqaUBKTNV-1" source="dHVZZs5qEAoQHsj6ltKS-12" target="dHVZZs5qEAoQHsj6ltKS-14" edge="1">
          <mxGeometry relative="1" as="geometry" />
        </mxCell>
        <mxCell id="dHVZZs5qEAoQHsj6ltKS-26" value="false" style="edgeLabel;html=1;align=center;verticalAlign=middle;resizable=0;points=[];" parent="dHVZZs5qEAoQHsj6ltKS-15" vertex="1" connectable="0">
          <mxGeometry x="-0.2952" y="3" relative="1" as="geometry">
            <mxPoint as="offset" />
          </mxGeometry>
        </mxCell>
        <mxCell id="dHVZZs5qEAoQHsj6ltKS-39" value="" style="edgeStyle=orthogonalEdgeStyle;rounded=0;orthogonalLoop=1;jettySize=auto;html=1;" parent="WIyWlLk6GJQsqaUBKTNV-1" source="dHVZZs5qEAoQHsj6ltKS-12" target="dHVZZs5qEAoQHsj6ltKS-38" edge="1">
          <mxGeometry relative="1" as="geometry" />
        </mxCell>
        <mxCell id="dHVZZs5qEAoQHsj6ltKS-12" value="choice=6" style="rhombus;whiteSpace=wrap;html=1;" parent="WIyWlLk6GJQsqaUBKTNV-1" vertex="1">
          <mxGeometry x="350" y="1110" width="80" height="80" as="geometry" />
        </mxCell>
        <mxCell id="dHVZZs5qEAoQHsj6ltKS-20" value="" style="edgeStyle=orthogonalEdgeStyle;rounded=0;orthogonalLoop=1;jettySize=auto;html=1;" parent="WIyWlLk6GJQsqaUBKTNV-1" source="dHVZZs5qEAoQHsj6ltKS-14" target="dHVZZs5qEAoQHsj6ltKS-19" edge="1">
          <mxGeometry relative="1" as="geometry" />
        </mxCell>
        <mxCell id="dHVZZs5qEAoQHsj6ltKS-27" value="false" style="edgeLabel;html=1;align=center;verticalAlign=middle;resizable=0;points=[];" parent="dHVZZs5qEAoQHsj6ltKS-20" vertex="1" connectable="0">
          <mxGeometry x="0.0095" y="-3" relative="1" as="geometry">
            <mxPoint as="offset" />
          </mxGeometry>
        </mxCell>
        <mxCell id="dHVZZs5qEAoQHsj6ltKS-43" style="edgeStyle=orthogonalEdgeStyle;rounded=0;orthogonalLoop=1;jettySize=auto;html=1;" parent="WIyWlLk6GJQsqaUBKTNV-1" source="dHVZZs5qEAoQHsj6ltKS-14" edge="1">
          <mxGeometry relative="1" as="geometry">
            <mxPoint x="540" y="1289.9999999999998" as="targetPoint" />
          </mxGeometry>
        </mxCell>
        <mxCell id="dHVZZs5qEAoQHsj6ltKS-14" value="choice=7" style="rhombus;whiteSpace=wrap;html=1;" parent="WIyWlLk6GJQsqaUBKTNV-1" vertex="1">
          <mxGeometry x="350" y="1250" width="80" height="80" as="geometry" />
        </mxCell>
        <mxCell id="dHVZZs5qEAoQHsj6ltKS-51" style="edgeStyle=orthogonalEdgeStyle;rounded=0;orthogonalLoop=1;jettySize=auto;html=1;" parent="WIyWlLk6GJQsqaUBKTNV-1" source="dHVZZs5qEAoQHsj6ltKS-19" edge="1">
          <mxGeometry relative="1" as="geometry">
            <mxPoint x="800" y="1139.9999999999998" as="targetPoint" />
          </mxGeometry>
        </mxCell>
        <mxCell id="dHVZZs5qEAoQHsj6ltKS-19" value="&#xa;&lt;div style=&quot;color: rgb(212, 212, 212); background-color: rgb(30, 30, 30); font-family: Consolas, &amp;quot;Courier New&amp;quot;, monospace; font-weight: normal; font-size: 14px; line-height: 19px;&quot;&gt;&lt;div&gt;&lt;span style=&quot;color: #ce9178;&quot;&gt;Vui long chon tu 1-7&lt;/span&gt;&lt;/div&gt;&lt;/div&gt;&#xa;&#xa;" style="rounded=1;whiteSpace=wrap;html=1;" parent="WIyWlLk6GJQsqaUBKTNV-1" vertex="1">
          <mxGeometry x="330" y="1420" width="120" height="60" as="geometry" />
        </mxCell>
        <mxCell id="dHVZZs5qEAoQHsj6ltKS-44" style="edgeStyle=orthogonalEdgeStyle;rounded=0;orthogonalLoop=1;jettySize=auto;html=1;" parent="WIyWlLk6GJQsqaUBKTNV-1" source="dHVZZs5qEAoQHsj6ltKS-28" edge="1">
          <mxGeometry relative="1" as="geometry">
            <mxPoint x="400" y="130" as="targetPoint" />
            <Array as="points">
              <mxPoint x="801" y="355" />
              <mxPoint x="801" y="110" />
              <mxPoint x="440" y="110" />
              <mxPoint x="440" y="130" />
            </Array>
          </mxGeometry>
        </mxCell>
        <mxCell id="dHVZZs5qEAoQHsj6ltKS-28" value="&#xa;&lt;div style=&quot;color: rgb(212, 212, 212); background-color: rgb(30, 30, 30); font-family: Consolas, &amp;quot;Courier New&amp;quot;, monospace; font-weight: normal; font-size: 14px; line-height: 19px;&quot;&gt;&lt;div&gt;&lt;span style=&quot;color: #ce9178;&quot;&gt;Ban vua chon mon Pho tom hum, vui long doi trong giay lat&lt;/span&gt;&lt;/div&gt;&lt;/div&gt;&#xa;&#xa;" style="whiteSpace=wrap;html=1;" parent="WIyWlLk6GJQsqaUBKTNV-1" vertex="1">
          <mxGeometry x="490" y="320" width="230" height="70" as="geometry" />
        </mxCell>
        <mxCell id="dHVZZs5qEAoQHsj6ltKS-45" style="edgeStyle=orthogonalEdgeStyle;rounded=0;orthogonalLoop=1;jettySize=auto;html=1;" parent="WIyWlLk6GJQsqaUBKTNV-1" source="dHVZZs5qEAoQHsj6ltKS-30" edge="1">
          <mxGeometry relative="1" as="geometry">
            <mxPoint x="800" y="330" as="targetPoint" />
          </mxGeometry>
        </mxCell>
        <mxCell id="dHVZZs5qEAoQHsj6ltKS-30" value="&#xa;&lt;div style=&quot;color: rgb(212, 212, 212); background-color: rgb(30, 30, 30); font-family: Consolas, &amp;quot;Courier New&amp;quot;, monospace; font-weight: normal; font-size: 14px; line-height: 19px;&quot;&gt;&lt;div&gt;&lt;span style=&quot;color: #ce9178;&quot;&gt;Ban vua chon mon Pho bo Kobe, vui long doi trong giay lat&lt;/span&gt;&lt;/div&gt;&lt;/div&gt;&#xa;&#xa;" style="whiteSpace=wrap;html=1;" parent="WIyWlLk6GJQsqaUBKTNV-1" vertex="1">
          <mxGeometry x="490" y="480" width="240" height="70" as="geometry" />
        </mxCell>
        <mxCell id="dHVZZs5qEAoQHsj6ltKS-46" style="edgeStyle=orthogonalEdgeStyle;rounded=0;orthogonalLoop=1;jettySize=auto;html=1;" parent="WIyWlLk6GJQsqaUBKTNV-1" source="dHVZZs5qEAoQHsj6ltKS-32" edge="1">
          <mxGeometry relative="1" as="geometry">
            <mxPoint x="800" y="510" as="targetPoint" />
          </mxGeometry>
        </mxCell>
        <mxCell id="dHVZZs5qEAoQHsj6ltKS-32" value="&#xa;&lt;div style=&quot;color: rgb(212, 212, 212); background-color: rgb(30, 30, 30); font-family: Consolas, &amp;quot;Courier New&amp;quot;, monospace; font-weight: normal; font-size: 14px; line-height: 19px;&quot;&gt;&lt;div&gt;&lt;span style=&quot;color: #ce9178;&quot;&gt;Ban vua chon mon Pho ga Viet Nam, vui long doi trong giay lat&lt;/span&gt;&lt;/div&gt;&lt;/div&gt;&#xa;&#xa;" style="whiteSpace=wrap;html=1;" parent="WIyWlLk6GJQsqaUBKTNV-1" vertex="1">
          <mxGeometry x="490" y="640" width="240" height="70" as="geometry" />
        </mxCell>
        <mxCell id="dHVZZs5qEAoQHsj6ltKS-47" style="edgeStyle=orthogonalEdgeStyle;rounded=0;orthogonalLoop=1;jettySize=auto;html=1;" parent="WIyWlLk6GJQsqaUBKTNV-1" source="dHVZZs5qEAoQHsj6ltKS-34" edge="1">
          <mxGeometry relative="1" as="geometry">
            <mxPoint x="800" y="660" as="targetPoint" />
          </mxGeometry>
        </mxCell>
        <mxCell id="dHVZZs5qEAoQHsj6ltKS-34" value="&#xa;&lt;div style=&quot;color: rgb(212, 212, 212); background-color: rgb(30, 30, 30); font-family: Consolas, &amp;quot;Courier New&amp;quot;, monospace; font-weight: normal; font-size: 14px; line-height: 19px;&quot;&gt;&lt;div&gt;&lt;span style=&quot;color: #ce9178;&quot;&gt;Ban vua chon mon Xoi trung thịt, vui long doi trong giay lat&lt;/span&gt;&lt;/div&gt;&lt;/div&gt;&#xa;&#xa;" style="whiteSpace=wrap;html=1;" parent="WIyWlLk6GJQsqaUBKTNV-1" vertex="1">
          <mxGeometry x="490" y="800" width="260" height="70" as="geometry" />
        </mxCell>
        <mxCell id="dHVZZs5qEAoQHsj6ltKS-48" style="edgeStyle=orthogonalEdgeStyle;rounded=0;orthogonalLoop=1;jettySize=auto;html=1;" parent="WIyWlLk6GJQsqaUBKTNV-1" source="dHVZZs5qEAoQHsj6ltKS-36" edge="1">
          <mxGeometry relative="1" as="geometry">
            <mxPoint x="800" y="809.9999999999998" as="targetPoint" />
          </mxGeometry>
        </mxCell>
        <mxCell id="dHVZZs5qEAoQHsj6ltKS-36" value="&#xa;&lt;div style=&quot;color: rgb(212, 212, 212); background-color: rgb(30, 30, 30); font-family: Consolas, &amp;quot;Courier New&amp;quot;, monospace; font-weight: normal; font-size: 14px; line-height: 19px;&quot;&gt;&lt;div&gt;&lt;span style=&quot;color: #ce9178;&quot;&gt;Ban vua chọn món Banh my trung, vui long doi trong giay lat&lt;/span&gt;&lt;/div&gt;&lt;/div&gt;&#xa;&#xa;" style="whiteSpace=wrap;html=1;" parent="WIyWlLk6GJQsqaUBKTNV-1" vertex="1">
          <mxGeometry x="490" y="960" width="270" height="70" as="geometry" />
        </mxCell>
        <mxCell id="dHVZZs5qEAoQHsj6ltKS-49" style="edgeStyle=orthogonalEdgeStyle;rounded=0;orthogonalLoop=1;jettySize=auto;html=1;" parent="WIyWlLk6GJQsqaUBKTNV-1" source="dHVZZs5qEAoQHsj6ltKS-38" edge="1">
          <mxGeometry relative="1" as="geometry">
            <mxPoint x="800" y="979.9999999999998" as="targetPoint" />
          </mxGeometry>
        </mxCell>
        <mxCell id="dHVZZs5qEAoQHsj6ltKS-38" value="&#xa;&lt;div style=&quot;color: rgb(212, 212, 212); background-color: rgb(30, 30, 30); font-family: Consolas, &amp;quot;Courier New&amp;quot;, monospace; font-weight: normal; font-size: 14px; line-height: 19px;&quot;&gt;&lt;div&gt;&lt;span style=&quot;color: #ce9178;&quot;&gt;Ban vua chon mon My ton khong nguoi lai, vui long doi trong giay lat&lt;/span&gt;&lt;/div&gt;&lt;/div&gt;&#xa;&#xa;" style="whiteSpace=wrap;html=1;" parent="WIyWlLk6GJQsqaUBKTNV-1" vertex="1">
          <mxGeometry x="490" y="1120" width="270" height="70" as="geometry" />
        </mxCell>
        <mxCell id="dHVZZs5qEAoQHsj6ltKS-42" value="end" style="ellipse;whiteSpace=wrap;html=1;" parent="WIyWlLk6GJQsqaUBKTNV-1" vertex="1">
          <mxGeometry x="545" y="1260" width="120" height="80" as="geometry" />
        </mxCell>
      </root>
    </mxGraphModel>
  </diagram>
</mxfile>
